HIERARCHY
ROOT Hips
{
    OFFSET 0.000000 0.000000 0.000000
    CHANNELS 6 Xposition Yposition Zposition Zrotation Yrotation Xrotation
    JOINT LeftUpLeg
    {
        OFFSET 9.351303 -10.175838 3.526452
        CHANNELS 3 Zrotation Yrotation Xrotation
        JOINT LeftLeg
        {
            OFFSET 14.659636 -40.277084 0.000000
            CHANNELS 3 Zrotation Yrotation Xrotation
            JOINT LeftFoot
            {
                OFFSET 14.067878 -38.651161 0.000000
                CHANNELS 3 Zrotation Yrotation Xrotation
                JOINT LeftToeBase
                {
                    OFFSET 1.112173 -3.055653 12.111810
                    CHANNELS 3 Zrotation Yrotation Xrotation
                    End Site
                    {
                        OFFSET 0.000000 0.000000 0.000000
                    }
                }
            }
        }
    }
    JOINT RightUpLeg
    {
        OFFSET -9.091435 -10.175838 3.526395
        CHANNELS 3 Zrotation Yrotation Xrotation
        JOINT RightLeg
        {
            OFFSET -14.647331 -40.243275 0.000000
            CHANNELS 3 Zrotation Yrotation Xrotation
            JOINT RightFoot
            {
                OFFSET -13.929250 -38.270390 0.000000
                CHANNELS 3 Zrotation Yrotation Xrotation
                JOINT RightToeBase
                {
                    OFFSET -1.299567 -3.570534 12.043344
                    CHANNELS 3 Zrotation Yrotation Xrotation
                    End Site
                    {
                        OFFSET 0.000000 0.000000 0.000000
                    }
                }
            }
        }
    }
    JOINT Spine
    {
        OFFSET 0.110687 11.596420 -0.796538
        CHANNELS 3 Zrotation Yrotation Xrotation
        JOINT Spine1
        {
            OFFSET 0.057629 11.652073 -0.334205
            CHANNELS 3 Zrotation Yrotation Xrotation
            JOINT Neck1
            {
                OFFSET 0.040245 8.845395 0.844854
                CHANNELS 3 Zrotation Yrotation Xrotation
                JOINT Head
                {
                    OFFSET 0.193546 8.807578 -0.564779
                    CHANNELS 3 Zrotation Yrotation Xrotation
                    End Site
                    {
                        OFFSET 0.000000 0.000000 0.000000
                    }
                }
            }
            JOINT LeftShoulder
            {
                OFFSET 0.000000 0.000000 0.000000
                CHANNELS 3 Zrotation Yrotation Xrotation
                JOINT LeftArm
                {
                    OFFSET 19.992746 5.104569 -0.980094
                    CHANNELS 3 Zrotation Yrotation Xrotation
                    JOINT LeftForeArm
                    {
                        OFFSET 27.460739 -0.000000 -0.000000
                        CHANNELS 3 Zrotation Yrotation Xrotation
                        JOINT LeftHand
                        {
                            OFFSET 18.940010 -0.000000 0.000000
                            CHANNELS 3 Zrotation Yrotation Xrotation
                            End Site
                            {
                                OFFSET 0.000000 0.000000 0.000000
                            }
                        }
                    }
                }
            }
            JOINT RightShoulder
            {
                OFFSET 0.000000 0.000000 0.000000
                CHANNELS 3 Zrotation Yrotation Xrotation
                JOINT RightArm
                {
                    OFFSET -19.744225 4.289406 -1.840978
                    CHANNELS 3 Zrotation Yrotation Xrotation
                    JOINT RightForeArm
                    {
                        OFFSET -28.371523 -0.000000 0.000000
                        CHANNELS 3 Zrotation Yrotation Xrotation
                        JOINT RightHand
                        {
                            OFFSET -18.989511 -0.000000 0.000000
                            CHANNELS 3 Zrotation Yrotation Xrotation
                            End Site
                            {
                                OFFSET 0.000000 0.000000 0.000000
                            }
                        }
                    }
                }
            }
        }
    }
}
MOTION
Frames: 10
Frame Time: 0.016667
52.342216 90.404099 -191.378464 1.840299 3.362801 7.902496 -25.371206 -1.286801 14.485703 1.848699 8.543600 24.377899 1.429502 18.676704 23.467117 0.000000 0.000000 0.000000 17.371204 18.217804 -34.774796 -5.722499 -14.153907 43.857494 -1.253400 -6.354903 -24.319901 -1.337401 7.322404 -20.674101 -2.129307 -10.436431 7.338009 3.504501 -2.927800 -2.805001 -4.296387 8.057157 -20.408901 0.822400 2.473901 1.095001 0.000000 0.000000 0.000000 -71.964699 -5.922301 61.423901 127.006943 -54.133621 -91.417572 0.000000 0.000000 -34.375702 0.000000 0.000000 0.000000 79.565605 -42.273502 40.058598 -74.457718 59.067326 -46.582100 0.000000 0.000000 -13.194600 
52.206749 90.402405 -187.510361 3.809500 3.308001 7.676404 -26.998096 -0.120900 12.950995 2.827400 10.410300 30.315901 1.229300 16.515900 21.472799 0.000000 0.000000 0.000000 15.787100 17.272301 -33.726398 -4.819601 -13.177704 40.037300 -1.447399 -4.802401 -24.901894 -1.314400 7.261700 -20.492905 -4.322893 -10.157084 7.613492 3.576101 -2.919500 -1.747600 -4.749701 7.637117 -21.627386 0.656000 2.387900 1.683600 0.000000 0.000000 0.000000 -71.759514 -4.801992 62.996597 124.658112 -54.935226 -89.504333 0.000000 0.000000 -33.849205 0.000000 0.000000 0.000000 81.417892 -39.345112 38.605717 -75.038132 59.137043 -47.080124 0.000000 0.000000 -12.166300 
52.038544 90.401276 -183.800293 2.385801 2.976103 7.612805 -25.131409 -0.234600 9.797801 4.498403 12.795702 38.608322 0.791999 12.133002 16.853004 0.000000 0.000000 0.000000 18.257002 16.928398 -32.453403 -4.265703 -12.505899 37.545898 -1.329701 -4.749701 -23.959194 -1.325700 7.291700 -20.582497 -2.401360 -9.324670 7.518316 2.974899 -2.643201 -2.245402 -4.622715 6.846860 -21.098982 -0.147600 2.166501 1.886501 0.000000 0.000000 0.000000 -71.811798 -2.068501 64.401810 122.314117 -55.661118 -87.577133 0.000000 0.000000 -32.475899 0.000000 0.000000 0.000000 82.799957 -37.281616 37.895500 -76.510422 59.301117 -48.345020 0.000000 0.000000 -11.932904 
52.019920 90.030434 -180.184494 3.312999 2.269400 7.612896 -25.912001 -0.358900 5.808403 6.814303 15.173501 48.168526 0.411100 13.496105 13.905910 1.379199 -7.431497 -21.000195 18.114201 16.123606 -31.458315 -4.134604 -12.337406 36.936226 -1.177100 -5.582402 -23.215508 -1.396100 7.475005 -21.130413 -3.229214 -9.096931 7.653948 3.461102 -2.575902 -2.554302 -5.453367 7.203055 -20.869354 0.112100 2.303103 1.547001 0.000000 0.000000 0.000000 -73.174706 1.858694 64.802902 119.553215 -56.427814 -85.286926 0.000000 0.000000 -30.964399 0.000000 0.000000 0.000000 82.392815 -34.109596 38.548904 -78.374687 59.483093 -49.949692 0.000000 0.000000 -11.697200 
51.979843 89.231194 -176.615540 2.887202 1.576500 6.646600 -25.201815 -0.391200 2.581900 9.655704 17.211601 58.331284 0.086000 14.260296 10.987200 1.433200 -7.569500 -21.413900 19.790398 15.143001 -29.037201 -4.255100 -12.492300 37.496601 -1.026900 -5.744504 -22.038496 -1.776501 8.384205 -23.887407 -2.679975 -8.270396 8.985639 3.334901 -2.342201 -2.468600 -5.775376 6.399952 -21.616959 -0.408700 2.107701 1.441901 0.000000 0.000000 0.000000 -73.779297 4.747998 64.709099 116.329697 -57.211201 -82.588707 0.000000 0.000000 -30.529102 0.000000 0.000000 0.000000 82.629120 -29.256710 38.764317 -79.967331 59.616222 -51.322613 0.000000 0.000000 -11.058000 
51.959522 88.157059 -173.029648 1.023800 0.820000 5.525699 -22.561005 -0.168500 -0.714700 13.026505 18.791708 69.207901 -0.309000 14.278699 5.875698 0.501701 -4.541003 -12.603807 23.098503 14.266404 -26.127899 -4.533604 -12.838499 38.766998 -1.157600 -3.042601 -21.629196 -0.425800 4.187798 -11.605598 -0.268856 -7.206606 10.391489 2.595101 -1.997901 -2.602000 -5.512299 5.787116 -22.036465 -0.630800 1.925101 0.882001 0.000000 0.000000 0.000000 -73.685394 8.036795 64.677895 112.425316 -58.011818 -79.291336 0.000000 0.000000 -31.454599 0.000000 0.000000 0.000000 82.132301 -24.003916 39.748905 -82.824638 59.804630 -53.790028 0.000000 0.000000 -11.358000 
51.917759 87.229118 -169.464645 0.147500 -0.561200 5.124802 -20.762903 0.564000 -5.834003 16.603714 19.721216 80.025429 -0.356200 13.452504 4.045502 0.961200 -6.242703 -17.490316 24.820009 14.838901 -24.734598 -5.202003 -13.607812 41.688396 -1.390800 -1.761000 -22.979992 -0.023100 0.981501 -2.697801 0.888397 -5.890748 11.071976 2.472101 -1.593000 -2.689801 -5.620089 6.083050 -21.904099 -0.297800 2.009101 0.118900 0.000000 0.000000 0.000000 -73.698799 11.026896 64.001686 107.247498 -58.845612 -74.878906 0.000000 0.000000 -31.605112 0.000000 0.000000 0.000000 81.011604 -17.761602 40.358395 -86.084846 59.942039 -56.610050 0.000000 0.000000 -10.862900 
51.882198 86.052261 -166.175659 -1.556600 -2.628701 4.216402 -18.246012 1.091500 -10.686406 20.085901 19.999802 90.251305 -0.390700 12.617892 1.975599 0.374501 -3.930702 -10.881910 27.576700 16.594500 -22.387398 -5.953104 -14.382707 44.793018 -1.599101 -1.567201 -24.508808 -0.001600 -0.254500 0.699300 2.850410 -4.249384 13.073034 2.190900 -1.057700 -3.052000 -5.702967 6.694173 -22.768223 -0.081400 2.193903 -1.577700 0.000000 0.000000 0.000000 -73.915520 13.606609 62.310696 100.030235 -59.616451 -68.675224 0.000000 0.000000 -30.596100 0.000000 0.000000 0.000000 79.521790 -10.294999 42.042198 -89.582458 59.999298 -59.638454 0.000000 0.000000 -11.136307 
52.052658 85.122635 -162.869156 -3.910102 -4.977601 3.273702 -14.757692 2.223399 -15.405092 23.075205 19.771706 99.024254 -0.390700 11.582603 -0.380600 0.280000 -3.403201 -9.403300 30.962208 16.405399 -19.049700 -6.326002 -14.737002 46.276402 -1.911000 0.352000 -26.065201 -0.004000 -0.407100 1.118501 5.994755 -2.854653 15.649495 1.476700 -0.532700 -3.787398 -6.257411 7.271029 -23.781075 -0.454900 2.391500 -2.225900 0.000000 0.000000 0.000000 -74.215630 17.430008 60.186924 94.075203 -59.937233 -63.528511 0.000000 0.000000 -28.551201 0.000000 0.000000 0.000000 77.926506 -1.962501 43.436100 -92.446693 59.977402 -62.118713 0.000000 0.000000 -10.452700 
52.152565 84.501747 -159.403503 -5.390899 -7.471200 3.296500 -12.363202 3.148998 -21.220098 25.331299 19.304401 105.763390 -0.308800 9.809004 -3.036800 1.146201 -6.798300 -19.119312 32.970318 15.891504 -16.412603 -6.453606 -14.854005 46.776333 -2.019400 1.904401 -26.365614 -0.003200 0.366100 -1.005901 8.062599 -1.076135 16.655273 0.532200 0.032400 -3.190501 -6.324390 7.617792 -24.794458 -0.383500 2.509901 -1.797801 0.000000 0.000000 0.000000 -73.745293 20.517012 58.254902 89.042328 -59.996540 -59.170620 0.000000 0.000000 -28.673998 0.000000 0.000000 0.000000 76.587120 6.753896 44.466301 -95.696724 59.876999 -64.931427 0.000000 0.000000 -9.146000 
